HIERARCHY
ROOT Hips
{
	OFFSET 0.000000 0.000000 0.000000 
	CHANNELS 6 Xposition Yposition Zposition Zrotation Yrotation Xrotation
	JOINT LeftUpLeg
	{
		OFFSET 1.363060 -1.794630 0.839290 
		CHANNELS 3 Zrotation Yrotation Xrotation
		JOINT LeftLeg
		{
			OFFSET 2.448110 -6.726130 0.000000 
			CHANNELS 3 Zrotation Yrotation Xrotation
			JOINT LeftFoot
			{
				OFFSET 2.562200 -7.039590 0.000000 
				CHANNELS 3 Zrotation Yrotation Xrotation
				JOINT LeftToeBase
				{
					OFFSET 0.157640 -0.433110 2.322550 
					CHANNELS 3 Zrotation Yrotation Xrotation
					End Site
					{
						OFFSET 0.000000 0.000000 0.000000 
					}
				}
			}
		}
	}
	JOINT RightUpLeg
	{
		OFFSET -1.305520 -1.794630 0.839290 
		CHANNELS 3 Zrotation Yrotation Xrotation
		JOINT RightLeg
		{
			OFFSET -2.542530 -6.985550 0.000000 
			CHANNELS 3 Zrotation Yrotation Xrotation
			JOINT RightFoot
			{
				OFFSET -2.568260 -7.056230 0.000000 
				CHANNELS 3 Zrotation Yrotation Xrotation
				JOINT RightToeBase
				{
					OFFSET -0.164730 -0.452590 2.363150 
					CHANNELS 3 Zrotation Yrotation Xrotation
					End Site
					{
						OFFSET 0.000000 0.000000 0.000000 
					}
				}
			}
		}
	}
	JOINT Spine
	{
		OFFSET 0.028270 2.035590 -0.193380 
		CHANNELS 3 Zrotation Yrotation Xrotation
		JOINT Spine1
		{
			OFFSET 0.056720 2.048850 -0.042750 
			CHANNELS 3 Zrotation Yrotation Xrotation
			JOINT Neck1
			{
				OFFSET -0.054170 1.746240 0.172020 
				CHANNELS 3 Zrotation Yrotation Xrotation
				JOINT Head
				{
					OFFSET 0.104070 1.761360 -0.123970 
					CHANNELS 3 Zrotation Yrotation Xrotation
					End Site
					{
						OFFSET 0.000000 0.000000 0.000000 
					}
				}
			}
			JOINT LeftArm
			{
				OFFSET 3.362410 1.200890 -0.311210 
				CHANNELS 3 Zrotation Yrotation Xrotation
				JOINT LeftForeArm
				{
					OFFSET 4.983000 -0.000000 -0.000000 
					CHANNELS 3 Zrotation Yrotation Xrotation
					JOINT LeftHand
					{
						OFFSET 3.483560 -0.000000 -0.000000 
						CHANNELS 3 Zrotation Yrotation Xrotation
						JOINT LeftHandIndex1
						{
							OFFSET 0.715260 -0.000000 -0.000000 
							CHANNELS 3 Zrotation Yrotation Xrotation
							End Site
							{
								OFFSET 0.000000 0.000000 0.000000 
							}
						}
					}
				}
			}
			JOINT RightArm
			{
				OFFSET -3.136600 1.374050 -0.404650 
				CHANNELS 3 Zrotation Yrotation Xrotation
				JOINT RightForeArm
				{
					OFFSET -5.241900 -0.000000 -0.000000 
					CHANNELS 3 Zrotation Yrotation Xrotation
					JOINT RightHand
					{
						OFFSET -3.444170 -0.000000 -0.000000 
						CHANNELS 3 Zrotation Yrotation Xrotation
						JOINT RightHandIndex1
						{
							OFFSET -0.622530 -0.000000 -0.000000 
							CHANNELS 3 Zrotation Yrotation Xrotation
							End Site
							{
								OFFSET 0.000000 0.000000 0.000000 
							}
						}
					}
				}
			}
		}
	}
}
MOTION
Frames: 12
Frame Time: 0.041667
0.527063 17.584983 0.380098 -1.022775 3.583173 21.755491 -12.364712 -0.867745 -47.115534 5.507092 16.425794 47.398341 3.486486 -2.971938 8.677332 1.166100 -6.854900 -19.286100 20.576231 -9.510272 -53.035652 -5.448706 -16.892391 48.614501 -5.196741 9.409541 10.529347 -0.016900 0.838400 -2.304100 2.944325 -0.348242 -5.532003 2.997597 0.964443 -13.480502 0.519228 -1.319123 -7.093261 -2.562300 -0.880300 -8.408700 -51.286350 45.601085 53.545033 139.633213 -51.120274 -104.707035 -1.775202 -1.299789 -47.603070 -7.125000 0.000000 0.000000 55.438642 -48.718500 36.394636 -143.113362 43.520813 -108.296882 2.251220 1.981946 -28.832303 7.125000 0.000000 0.000000 
0.527828 17.586295 0.377473 -1.046476 3.541803 21.826097 -12.395797 -0.761467 -47.218552 5.487574 16.420319 47.356566 3.570715 -3.164034 8.789720 1.120300 -6.723600 -18.899200 20.623312 -9.478877 -53.112130 -5.424841 -16.883015 48.562723 -5.209698 9.458123 10.570106 -0.017200 0.847000 -2.328000 2.944359 -0.319650 -5.581930 2.965826 0.975628 -13.633928 0.545436 -1.342476 -7.083816 -2.541900 -0.896100 -8.344000 -51.677172 45.794182 53.107602 139.573900 -51.175967 -104.651046 -1.769410 -1.290402 -47.442293 -7.125000 0.000000 0.000000 55.806607 -48.977591 36.122895 -143.103326 43.520055 -108.282682 2.244093 1.978077 -28.793486 7.125000 0.000000 0.000000 
0.532749 17.590451 0.381519 -1.020138 3.572536 21.895837 -12.453226 -0.721542 -47.251421 5.450419 16.395375 47.275514 3.699048 -3.451584 8.891994 1.008200 -6.389000 -17.917300 20.641004 -9.591224 -53.165729 -5.389595 -16.859905 48.466740 -5.246434 9.556148 10.699453 -0.015700 0.808300 -2.221500 2.931570 -0.335267 -5.613966 2.885216 0.955656 -13.692910 0.601997 -1.366707 -7.076317 -2.496300 -0.911900 -8.273000 -52.119455 45.888092 52.629086 139.483913 -51.239893 -104.574615 -1.762440 -1.279767 -47.156543 -7.125000 0.000000 0.000000 56.165118 -49.111693 35.846020 -143.091606 43.521009 -108.264553 2.245497 1.970043 -28.755654 7.125000 0.000000 0.000000 
0.537232 17.595590 0.385237 -0.972102 3.620883 21.952005 -12.513653 -0.712045 -47.269423 5.411313 16.369175 47.212126 3.988397 -4.116569 9.023090 0.739000 -5.491900 -15.317000 20.653525 -9.731653 -53.208301 -5.356793 -16.835661 48.364452 -5.243794 9.518981 10.797677 -0.022800 0.975300 -2.680900 2.926016 -0.347796 -5.641178 2.842061 0.943868 -13.740038 0.649223 -1.393531 -7.117587 -2.443200 -0.926300 -8.223300 -52.525399 45.890439 52.274677 139.404180 -51.286968 -104.504222 -1.749078 -1.260311 -46.804829 -7.125000 0.000000 0.000000 56.481359 -49.148728 35.567110 -143.060513 43.533727 -108.235551 2.249191 1.957316 -28.708261 7.125000 0.000000 0.000000 
0.539638 17.612430 0.384253 -0.979848 3.669111 22.028162 -12.499437 -0.697726 -47.291514 5.354703 16.334220 47.084665 4.215415 -4.645818 9.254515 0.554600 -4.770400 -13.254800 20.715832 -9.800825 -53.243976 -5.304575 -16.796509 48.220825 -5.232500 9.462305 10.904033 -0.025900 1.038300 -2.854200 2.934887 -0.362151 -5.718670 2.811687 0.933830 -13.927753 0.648133 -1.397216 -7.100676 -2.439400 -0.931200 -8.152600 -52.889589 45.947895 51.991457 139.328681 -51.334633 -104.435414 -1.735981 -1.236391 -46.401300 -7.125000 0.000000 0.000000 56.732281 -49.152356 35.368843 -143.017029 43.554425 -108.196564 2.259396 1.936380 -28.665009 7.125000 0.000000 0.000000 
0.544121 17.617241 0.384690 -1.034756 3.725230 22.105420 -12.478837 -0.652914 -47.359419 5.332005 16.324394 46.999913 4.104973 -4.376014 9.278532 0.688100 -5.303200 -14.775300 20.833789 -9.869092 -53.323989 -5.268244 -16.769572 48.131662 -5.235716 9.465814 10.977050 -0.026300 1.046600 -2.877000 2.956922 -0.378331 -5.838659 2.776920 0.920838 -14.219061 0.650805 -1.381863 -7.028503 -2.444900 -0.926500 -8.066400 -53.249890 46.065845 51.737656 139.230055 -51.400637 -104.351335 -1.733231 -1.212042 -46.042059 -7.125000 0.000000 0.000000 56.843523 -49.192811 35.294512 -143.021311 43.542584 -108.190339 2.274094 1.912870 -28.523284 7.125000 0.000000 0.000000 
0.550245 17.623255 0.391798 -1.038671 3.743209 22.149234 -12.519403 -0.601241 -47.358128 5.307301 16.301121 46.906854 3.935102 -3.964514 9.259226 0.864000 -5.926900 -16.572600 20.868609 -9.961605 -53.349254 -5.234302 -16.741981 48.041821 -5.276717 9.577301 11.089636 -0.026500 1.051800 -2.891300 2.964020 -0.405577 -5.957561 2.746932 0.904237 -14.472183 0.630017 -1.382176 -6.888555 -2.469600 -0.927200 -7.953400 -53.472535 46.201270 51.605757 139.178992 -51.440213 -104.303713 -1.735824 -1.194248 -45.705469 -7.125000 0.000000 0.000000 56.891343 -49.229519 35.365115 -143.040537 43.518118 -108.197381 2.280845 1.901477 -28.312983 7.125000 0.000000 0.000000 
0.555056 17.628504 0.400109 -0.979281 3.718991 22.226732 -12.606587 -0.585873 -47.377557 5.273582 16.273895 46.832824 3.980151 -4.071852 9.353998 0.831300 -5.816500 -16.253000 20.809057 -9.976835 -53.376120 -5.212667 -16.730978 47.979003 -5.303641 9.656955 11.181724 -0.022600 0.970300 -2.667000 2.947520 -0.411502 -6.069663 2.713094 0.899713 -14.655041 0.625306 -1.411997 -6.711368 -2.476700 -0.938800 -7.821100 -53.553797 46.252921 51.626579 139.192101 -51.429299 -104.307018 -1.734349 -1.202480 -45.456100 -7.125000 0.000000 0.000000 56.948385 -49.221051 35.437618 -143.065049 43.489021 -108.208525 2.287151 1.883916 -28.039688 7.125000 0.000000 0.000000 
0.557353 17.632550 0.406232 -0.868246 3.658395 22.329771 -12.743553 -0.580614 -47.428066 5.234290 16.244479 46.750813 4.016668 -4.162822 9.436300 0.794400 -5.689100 -15.885100 20.686605 -9.926942 -53.421211 -5.191234 -16.729073 47.914186 -5.293771 9.639520 11.294889 -0.015700 0.808700 -2.222700 2.931187 -0.419711 -6.150634 2.737674 0.904855 -14.731709 0.683634 -1.429483 -6.611753 -2.431100 -0.945200 -7.718100 -53.684011 46.163568 51.616425 139.107104 -51.460346 -104.248782 -1.731756 -1.223143 -45.350373 -7.125000 0.000000 0.000000 56.963386 -49.050269 35.480740 -143.055889 43.484693 -108.198138 2.296730 1.864129 -27.726878 7.125000 0.000000 0.000000 
0.558555 17.638346 0.414433 -0.773023 3.612929 22.394847 -12.852873 -0.581204 -47.436554 5.198929 16.214835 46.676361 4.084018 -4.318252 9.489723 0.703700 -5.361900 -14.943600 20.574555 -9.903764 -53.420857 -5.170341 -16.720522 47.850517 -5.308434 9.686480 11.399462 -0.010000 0.645400 -1.773500 2.918205 -0.448190 -6.218087 2.766559 0.898555 -14.762535 0.743167 -1.406832 -6.441641 -2.396400 -0.934200 -7.559500 -53.794955 46.046619 51.578738 138.929148 -51.542811 -104.128094 -1.718594 -1.239437 -45.310484 -7.125000 0.000000 0.000000 56.992292 -48.842578 35.487983 -143.029578 43.492711 -108.174685 2.309549 1.840389 -27.420927 7.125000 0.000000 0.000000 
0.560633 17.644907 0.424275 -0.775469 3.633817 22.395455 -12.846676 -0.577824 -47.381129 5.169551 16.186944 46.602833 4.191134 -4.555329 9.550596 0.603900 -4.974300 -13.835400 20.561734 -9.914187 -53.372555 -5.156656 -16.703508 47.802134 -5.300992 9.640879 11.395184 -0.013500 0.751200 -2.064400 2.910401 -0.486301 -6.309179 2.727625 0.871212 -14.875281 0.823665 -1.366985 -6.048735 -2.369100 -0.913400 -7.267100 -53.805403 46.014790 51.584619 138.809959 -51.595584 -104.049239 -1.707900 -1.239708 -45.353309 -7.125000 0.000000 0.000000 57.033717 -48.691214 35.493631 -143.012154 43.485089 -108.162291 2.316967 1.819663 -27.214335 7.125000 0.000000 0.000000 
0.564023 17.649171 0.433460 -0.865405 3.672826 22.361717 -12.733259 -0.580795 -47.292377 5.146779 16.164037 46.530760 4.279541 -4.748327 9.652855 0.536600 -4.693800 -13.037300 20.611379 -9.890636 -53.298495 -5.143016 -16.681373 47.768400 -5.304400 9.640884 11.382134 -0.012800 0.730900 -2.008600 2.916882 -0.501672 -6.445427 2.663898 0.848816 -15.153108 0.912809 -1.331177 -5.588254 -2.339800 -0.891600 -6.946200 -53.784331 46.113348 51.651038 138.724568 -51.640503 -103.991404 -1.708408 -1.233539 -45.436221 -7.125000 0.000000 0.000000 57.055895 -48.659149 35.503951 -142.998986 43.474297 -108.152537 2.326829 1.807006 -27.053774 7.125000 0.000000 0.000000 
